<?xml version="1.0" standalone="no"?>
<!DOCTYPE svg PUBLIC "-//W3C//DTD SVG 20010904//EN"
 "http://www.w3.org/TR/2001/REC-SVG-20010904/DTD/svg10.dtd">
<svg version="1.0" xmlns="http://www.w3.org/2000/svg"
 width="400.000000pt" height="400.000000pt" viewBox="0 0 400.000000 400.000000"
 preserveAspectRatio="xMidYMid meet">

<g transform="translate(0.000000,400.000000) scale(0.100000,-0.100000)"
fill="#000000" stroke="none">
<path d="M1855 3589 c-269 -25 -514 -112 -740 -264 -656 -438 -893 -1286 -560
-2000 210 -451 641 -792 1125 -889 341 -68 680 -28 997 119 440 203 778 626
883 1105 74 338 33 700 -114 1015 -122 260 -319 489 -561 650 -233 156 -466
238 -755 264 -127 12 -145 12 -275 0z m370 -817 c134 -44 232 -100 323 -185
53 -50 142 -161 142 -177 0 -7 -261 -164 -563 -340 -59 -34 -106 -67 -104 -73
2 -6 64 -54 139 -106 74 -53 214 -152 311 -221 98 -69 177 -131 177 -139 0 -7
-37 -51 -82 -96 -97 -96 -201 -161 -326 -202 -81 -26 -98 -28 -242 -28 -122 0
-167 4 -214 19 -267 84 -458 266 -550 524 -29 84 -30 93 -30 252 0 158 2 169
31 252 100 286 336 488 633 542 14 3 86 3 160 1 99 -3 151 -9 195 -23z"/>
</g>
</svg>
